<svg version="1.2" xmlns="http://www.w3.org/2000/svg" viewBox="0 0 500 500" penrose="0"><penrose><croppedViewBox>61.53411298030409 2.9368468155608696 388.88582997227815 481.2376003218196</croppedViewBox></penrose><g style="solid"><line x1="81.81272802179353" y1="30.2235823724954" x2="358.7917376564586" y2="299.35540725165527" stroke="#000000" stroke-opacity="1" stroke-width="1.75"></line><title>`ang_A_D_B`.side1</title></g><g style="solid"><line x1="81.81272802179353" y1="30.2235823724954" x2="421.247630844849" y2="235.07846249312396" stroke="#000000" stroke-opacity="1" stroke-width="1.75"></line><title>`AB`.icon</title></g><g style="solid"><line x1="163.69973762348272" y1="310.3620442667424" x2="81.81272802179353" y2="30.2235823724954" stroke="#000000" stroke-opacity="1" stroke-width="1.75"></line><title>`ang_B_E_A`.side2</title></g><g style="solid"><line x1="81.81272802179353" y1="30.2235823724954" x2="206.3437430664213" y2="456.24802009768877" stroke="#000000" stroke-opacity="1" stroke-width="1.75"></line><title>`AC`.icon</title></g><g style="solid"><line x1="81.81272802179353" y1="30.2235823724954" x2="421.247630844849" y2="235.07846249312396" stroke="#000000" stroke-opacity="1" stroke-width="1.75"></line><title>`tri_A_B_C`.PQ</title></g><g style="solid"><line x1="206.3437430664213" y1="456.24802009768877" x2="81.81272802179353" y2="30.2235823724954" stroke="#000000" stroke-opacity="1" stroke-width="1.75"></line><title>`tri_A_B_C`.RP</title></g><g style="solid"><line x1="81.81272802179353" y1="30.2235823724954" x2="358.7917376564586" y2="299.35540725165527" stroke="#000000" stroke-opacity="1" stroke-width="1.75"></line><title>`AD`.icon</title></g><g style="solid"><line x1="361.56272995926827" y1="199.05782593592141" x2="81.81272802179353" y2="30.2235823724954" stroke="#000000" stroke-opacity="1" stroke-width="1.75"></line><title>`ang_C_F_A`.side2</title></g><circle fill="#000000" fill-opacity="1" cx="81.81272802179353" cy="30.2235823724954" stroke="#000000" stroke-opacity="1" stroke-width="0" r="4"><title>`A`.icon</title></circle><g style="solid"><line x1="358.7917376564586" y1="299.35540725165527" x2="421.247630844849" y2="235.07846249312396" stroke="#000000" stroke-opacity="1" stroke-width="1.75"></line><title>`ang_A_D_B`.side2</title></g><circle fill="#000000" fill-opacity="1" cx="358.7917376564586" cy="299.35540725165527" stroke="#000000" stroke-opacity="1" stroke-width="0" r="4"><title>`D`.icon</title></circle><g style="solid"><line x1="421.247630844849" y1="235.07846249312396" x2="163.69973762348272" y2="310.3620442667424" stroke="#000000" stroke-opacity="1" stroke-width="1.75"></line><title>`ang_B_E_A`.side1</title></g><g style="solid"><line x1="421.247630844849" y1="235.07846249312396" x2="163.69973762348272" y2="310.3620442667424" stroke="#000000" stroke-opacity="1" stroke-width="1.75"></line><title>`BE`.icon</title></g><g style="solid"><line x1="421.247630844849" y1="235.07846249312396" x2="206.3437430664213" y2="456.24802009768877" stroke="#000000" stroke-opacity="1" stroke-width="1.75"></line><title>`tri_A_B_C`.QR</title></g><g style="solid"><line x1="421.247630844849" y1="235.07846249312396" x2="206.3437430664213" y2="456.24802009768877" stroke="#000000" stroke-opacity="1" stroke-width="1.75"></line><title>`BC`.icon</title></g><circle fill="#000000" fill-opacity="1" cx="421.247630844849" cy="235.07846249312396" stroke="#000000" stroke-opacity="1" stroke-width="0" r="4"><title>`B`.icon</title></circle><g transform="rotate(0, 69.03411298030409, 10.096846815560866)translate(61.53411298030409, 2.936846815560866)"><title>`A`.text</title><svg style="font-size: 20px" xmlns="http://www.w3.org/2000/svg" width="15" height="14.32" role="img" focusable="false" viewBox="0 -716 750 716"><g stroke="none" fill="#000000" stroke-width="0" transform="scale(1,-1)" fill-opacity="1"><g data-mml-node="math"><g data-mml-node="mi"><path data-c="1D434" d="M208 74Q208 50 254 46Q272 46 272 35Q272 34 270 22Q267 8 264 4T251 0Q249 0 239 0T205 1T141 2Q70 2 50 0H42Q35 7 35 11Q37 38 48 46H62Q132 49 164 96Q170 102 345 401T523 704Q530 716 547 716H555H572Q578 707 578 706L606 383Q634 60 636 57Q641 46 701 46Q726 46 726 36Q726 34 723 22Q720 7 718 4T704 0Q701 0 690 0T651 1T578 2Q484 2 455 0H443Q437 6 437 9T439 27Q443 40 445 43L449 46H469Q523 49 533 63L521 213H283L249 155Q208 86 208 74ZM516 260Q516 271 504 416T490 562L463 519Q447 492 400 412L310 260L413 259Q516 259 516 260Z"></path></g></g></g></svg></g><g transform="rotate(0, 442.8299429525822, 227.7842472886367)translate(435.2399429525822, 220.95424728863668)"><title>`B`.text</title><svg style="font-size: 20px" xmlns="http://www.w3.org/2000/svg" width="15.18" height="13.66" role="img" focusable="false" viewBox="0 -683 759 683"><g stroke="none" fill="#000000" stroke-width="0" transform="scale(1,-1)" fill-opacity="1"><g data-mml-node="math"><g data-mml-node="mi"><path data-c="1D435" d="M231 637Q204 637 199 638T194 649Q194 676 205 682Q206 683 335 683Q594 683 608 681Q671 671 713 636T756 544Q756 480 698 429T565 360L555 357Q619 348 660 311T702 219Q702 146 630 78T453 1Q446 0 242 0Q42 0 39 2Q35 5 35 10Q35 17 37 24Q42 43 47 45Q51 46 62 46H68Q95 46 128 49Q142 52 147 61Q150 65 219 339T288 628Q288 635 231 637ZM649 544Q649 574 634 600T585 634Q578 636 493 637Q473 637 451 637T416 636H403Q388 635 384 626Q382 622 352 506Q352 503 351 500L320 374H401Q482 374 494 376Q554 386 601 434T649 544ZM595 229Q595 273 572 302T512 336Q506 337 429 337Q311 337 310 336Q310 334 293 263T258 122L240 52Q240 48 252 48T333 46Q422 46 429 47Q491 54 543 105T595 229Z"></path></g></g></g></svg></g><g transform="rotate(0, 194.64452436115843, 476.90444713738054)translate(187.04452436115844, 469.63444713738056)"><title>`C`.text</title><svg style="font-size: 20px" xmlns="http://www.w3.org/2000/svg" width="15.2" height="14.54" role="img" focusable="false" viewBox="0 -705 760 727"><g stroke="none" fill="#000000" stroke-width="0" transform="scale(1,-1)" fill-opacity="1"><g data-mml-node="math"><g data-mml-node="mi"><path data-c="1D436" d="M50 252Q50 367 117 473T286 641T490 704Q580 704 633 653Q642 643 648 636T656 626L657 623Q660 623 684 649Q691 655 699 663T715 679T725 690L740 705H746Q760 705 760 698Q760 694 728 561Q692 422 692 421Q690 416 687 415T669 413H653Q647 419 647 422Q647 423 648 429T650 449T651 481Q651 552 619 605T510 659Q484 659 454 652T382 628T299 572T226 479Q194 422 175 346T156 222Q156 108 232 58Q280 24 350 24Q441 24 512 92T606 240Q610 253 612 255T628 257Q648 257 648 248Q648 243 647 239Q618 132 523 55T319 -22Q206 -22 128 53T50 252Z"></path></g></g></g></svg></g><g transform="rotate(0, 369.4703325267022, 319.9784098912246)translate(361.1903325267022, 313.1484098912246)"><title>`D`.text</title><svg style="font-size: 20px" xmlns="http://www.w3.org/2000/svg" width="16.56" height="13.66" role="img" focusable="false" viewBox="0 -683 828 683"><g stroke="none" fill="#000000" stroke-width="0" transform="scale(1,-1)" fill-opacity="1"><g data-mml-node="math"><g data-mml-node="mi"><path data-c="1D437" d="M287 628Q287 635 230 637Q207 637 200 638T193 647Q193 655 197 667T204 682Q206 683 403 683Q570 682 590 682T630 676Q702 659 752 597T803 431Q803 275 696 151T444 3L430 1L236 0H125H72Q48 0 41 2T33 11Q33 13 36 25Q40 41 44 43T67 46Q94 46 127 49Q141 52 146 61Q149 65 218 339T287 628ZM703 469Q703 507 692 537T666 584T629 613T590 629T555 636Q553 636 541 636T512 636T479 637H436Q392 637 386 627Q384 623 313 339T242 52Q242 48 253 48T330 47Q335 47 349 47T373 46Q499 46 581 128Q617 164 640 212T683 339T703 469Z"></path></g></g></g></svg></g><circle fill="#000000" fill-opacity="1" cx="163.69973762348272" cy="310.3620442667424" stroke="#000000" stroke-opacity="1" stroke-width="0" r="4"><title>`E`.icon</title></circle><g transform="rotate(0, 142.24430364834598, 301.29625274264345)translate(134.604303648346, 294.49625274264343)"><title>`E`.text</title><svg style="font-size: 20px" xmlns="http://www.w3.org/2000/svg" width="15.280000000000001" height="13.600000000000001" role="img" focusable="false" viewBox="0 -680 764 680"><g stroke="none" fill="#000000" stroke-width="0" transform="scale(1,-1)" fill-opacity="1"><g data-mml-node="math"><g data-mml-node="mi"><path data-c="1D438" d="M492 213Q472 213 472 226Q472 230 477 250T482 285Q482 316 461 323T364 330H312Q311 328 277 192T243 52Q243 48 254 48T334 46Q428 46 458 48T518 61Q567 77 599 117T670 248Q680 270 683 272Q690 274 698 274Q718 274 718 261Q613 7 608 2Q605 0 322 0H133Q31 0 31 11Q31 13 34 25Q38 41 42 43T65 46Q92 46 125 49Q139 52 144 61Q146 66 215 342T285 622Q285 629 281 629Q273 632 228 634H197Q191 640 191 642T193 659Q197 676 203 680H757Q764 676 764 669Q764 664 751 557T737 447Q735 440 717 440H705Q698 445 698 453L701 476Q704 500 704 528Q704 558 697 578T678 609T643 625T596 632T532 634H485Q397 633 392 631Q388 629 386 622Q385 619 355 499T324 377Q347 376 372 376H398Q464 376 489 391T534 472Q538 488 540 490T557 493Q562 493 565 493T570 492T572 491T574 487T577 483L544 351Q511 218 508 216Q505 213 492 213Z"></path></g></g></g></svg></g><g transform="rotate(0, 375.041042982008, 218.51246586405867)translate(367.55104298200797, 211.71246586405866)"><title>`F`.text</title><svg style="font-size: 20px" xmlns="http://www.w3.org/2000/svg" width="14.98" height="13.600000000000001" role="img" focusable="false" viewBox="0 -680 749 680"><g stroke="none" fill="#000000" stroke-width="0" transform="scale(1,-1)" fill-opacity="1"><g data-mml-node="math"><g data-mml-node="mi"><path data-c="1D439" d="M48 1Q31 1 31 11Q31 13 34 25Q38 41 42 43T65 46Q92 46 125 49Q139 52 144 61Q146 66 215 342T285 622Q285 629 281 629Q273 632 228 634H197Q191 640 191 642T193 659Q197 676 203 680H742Q749 676 749 669Q749 664 736 557T722 447Q720 440 702 440H690Q683 445 683 453Q683 454 686 477T689 530Q689 560 682 579T663 610T626 626T575 633T503 634H480Q398 633 393 631Q388 629 386 623Q385 622 352 492L320 363H375Q378 363 398 363T426 364T448 367T472 374T489 386Q502 398 511 419T524 457T529 475Q532 480 548 480H560Q567 475 567 470Q567 467 536 339T502 207Q500 200 482 200H470Q463 206 463 212Q463 215 468 234T473 274Q473 303 453 310T364 317H309L277 190Q245 66 245 60Q245 46 334 46H359Q365 40 365 39T363 19Q359 6 353 0H336Q295 2 185 2Q120 2 86 2T48 1Z"></path></g></g></g></svg></g><g transform="rotate(0, 316.85434604045224, 243.1477693676866)translate(307.97434604045225, 236.3177693676866)"><title>`H`.text</title><svg style="font-size: 20px" xmlns="http://www.w3.org/2000/svg" width="17.76" height="13.66" role="img" focusable="false" viewBox="0 -683 888 683"><g stroke="none" fill="#000000" stroke-width="0" transform="scale(1,-1)" fill-opacity="1"><g data-mml-node="math"><g data-mml-node="mi"><path data-c="1D43B" d="M228 637Q194 637 192 641Q191 643 191 649Q191 673 202 682Q204 683 219 683Q260 681 355 681Q389 681 418 681T463 682T483 682Q499 682 499 672Q499 670 497 658Q492 641 487 638H485Q483 638 480 638T473 638T464 637T455 637Q416 636 405 634T387 623Q384 619 355 500Q348 474 340 442T328 395L324 380Q324 378 469 378H614L615 381Q615 384 646 504Q674 619 674 627T617 637Q594 637 587 639T580 648Q580 650 582 660Q586 677 588 679T604 682Q609 682 646 681T740 680Q802 680 835 681T871 682Q888 682 888 672Q888 645 876 638H874Q872 638 869 638T862 638T853 637T844 637Q805 636 794 634T776 623Q773 618 704 340T634 58Q634 51 638 51Q646 48 692 46H723Q729 38 729 37T726 19Q722 6 716 0H701Q664 2 567 2Q533 2 504 2T458 2T437 1Q420 1 420 10Q420 15 423 24Q428 43 433 45Q437 46 448 46H454Q481 46 514 49Q520 50 522 50T528 55T534 64T540 82T547 110T558 153Q565 181 569 198Q602 330 602 331T457 332H312L279 197Q245 63 245 58Q245 51 253 49T303 46H334Q340 38 340 37T337 19Q333 6 327 0H312Q275 2 178 2Q144 2 115 2T69 2T48 1Q31 1 31 10Q31 12 34 24Q39 43 44 45Q48 46 59 46H65Q92 46 125 49Q139 52 144 61Q147 65 216 339T285 628Q285 635 228 637Z"></path></g></g></g></svg></g><g style="solid"><line x1="206.3437430664213" y1="456.24802009768877" x2="361.56272995926827" y2="199.05782593592141" stroke="#000000" stroke-opacity="1" stroke-width="1.75"></line><title>`CF`.icon</title></g><g style="solid"><line x1="206.3437430664213" y1="456.24802009768877" x2="361.56272995926827" y2="199.05782593592141" stroke="#000000" stroke-opacity="1" stroke-width="1.75"></line><title>`ang_C_F_A`.side1</title></g><circle fill="#000000" fill-opacity="1" cx="206.3437430664213" cy="456.24802009768877" stroke="#000000" stroke-opacity="1" stroke-width="0" r="4"><title>`C`.icon</title></circle><path fill="none" stroke="none" d="M 81.81272802179353 30.2235823724954 L 421.247630844849 235.07846249312396 L 206.3437430664213 456.24802009768877 Z "><title>`tri_A_B_C`.icon</title></path><circle fill="#000000" fill-opacity="1" cx="361.56272995926827" cy="199.05782593592141" stroke="#000000" stroke-opacity="1" stroke-width="0" r="4"><title>`F`.icon</title></circle><path fill="none" stroke="#000000" stroke-opacity="1" stroke-width="2" stroke-linecap="butt" d="M 351.6198046987918 292.3866647200324 L 358.58854723041463 285.2147317623656 L 365.7604795910977 292.18347490864744"><title>`ang_A_D_B`.mark</title></path><path fill="none" stroke="#000000" stroke-opacity="1" stroke-width="2" stroke-linecap="butt" d="M 173.2980781953065 307.55636238640625 L 170.49239631497034 297.9580218145825 L 160.8940557345722 300.763703666114"><title>`ang_B_E_A`.mark</title></path><path fill="none" stroke="#000000" stroke-opacity="1" stroke-width="2" stroke-linecap="butt" d="M 356.39564102260886 207.61943707301742 L 347.8340298855128 202.45234813635798 L 353.00111879914766 193.89073698545835"><title>`ang_C_F_A`.mark</title></path><circle fill="#000000" fill-opacity="1" cx="322.38297872195466" cy="263.9777666138831" stroke="#000000" stroke-opacity="1" stroke-width="0" r="4"><title>`H`.icon</title></circle></svg>