<svg version="1.2" xmlns="http://www.w3.org/2000/svg" viewBox="0 0 500 500" penrose="0"><penrose><croppedViewBox>152.14133134780758 58.026793084709624 216.1216639487639 363.154814106852</croppedViewBox></penrose><g style="solid"><line x1="199.55155934525934" y1="62.026793084709624" x2="260.2135407337741" y2="381.3927149364899" stroke="#000000" stroke-opacity="1" stroke-width="1.75"></line><title>`ang_O_D_B`.side1</title></g><g style="solid"><line x1="199.55155934525934" y1="62.026793084709624" x2="301.5864770011329" y2="378.57495088984075" stroke="#000000" stroke-opacity="1" stroke-width="1.75"></line><title>`ang_O_E_A`.side1</title></g><g style="solid"><line x1="199.55155934525934" y1="62.026793084709624" x2="222.13831240834125" y2="393.6657378277043" stroke="#000000" stroke-opacity="1" stroke-width="1.75"></line><title>`ang_O_F_A`.side1</title></g><circle fill="#000000" fill-opacity="1" cx="199.55155934525934" cy="62.026793084709624" stroke="#000000" stroke-opacity="1" stroke-width="0" r="4"><title>`O`.icon</title></circle><g style="solid"><line x1="260.2135407337741" y1="381.3927149364899" x2="180.76537614098248" y2="396.48350187435335" stroke="#000000" stroke-opacity="1" stroke-width="1.75"></line><title>`ang_O_D_B`.side2</title></g><circle fill="#000000" fill-opacity="1" cx="260.2135407337741" cy="381.3927149364899" stroke="#000000" stroke-opacity="1" stroke-width="0" r="4"><title>`D`.icon</title></circle><g style="solid"><line x1="263.5112486757" y1="390.8479737810552" x2="180.76537614098248" y2="396.48350187435335" stroke="#000000" stroke-opacity="1" stroke-width="1.75"></line><title>`AB`.icon</title></g><g style="solid"><line x1="263.5112486757" y1="390.8479737810552" x2="180.76537614098248" y2="396.48350187435335" stroke="#000000" stroke-opacity="1" stroke-width="1.75"></line><title>`tri_A_B_C`.PQ</title></g><g style="solid"><line x1="180.76537614098248" y1="396.48350187435335" x2="339.66170532656577" y2="366.30192799862635" stroke="#000000" stroke-opacity="1" stroke-width="1.75"></line><title>`tri_A_B_C`.QR</title></g><g style="solid"><line x1="180.76537614098248" y1="396.48350187435335" x2="339.66170532656577" y2="366.30192799862635" stroke="#000000" stroke-opacity="1" stroke-width="1.75"></line><title>`BC`.icon</title></g><circle fill="#000000" fill-opacity="1" cx="180.76537614098248" cy="396.48350187435335" stroke="#000000" stroke-opacity="1" stroke-width="0" r="4"><title>`B`.icon</title></circle><g transform="rotate(0, 281.3316986957271, 368.9786493202142)translate(273.0516986957271, 362.1486493202142)"><title>`D`.text</title><svg style="font-size: 20px" xmlns="http://www.w3.org/2000/svg" width="16.56" height="13.66" role="img" focusable="false" viewBox="0 -683 828 683"><g stroke="none" fill="#000000" stroke-width="0" transform="scale(1,-1)" fill-opacity="1"><g data-mml-node="math"><g data-mml-node="mi"><path data-c="1D437" d="M287 628Q287 635 230 637Q207 637 200 638T193 647Q193 655 197 667T204 682Q206 683 403 683Q570 682 590 682T630 676Q702 659 752 597T803 431Q803 275 696 151T444 3L430 1L236 0H125H72Q48 0 41 2T33 11Q33 13 36 25Q40 41 44 43T67 46Q94 46 127 49Q141 52 146 61Q149 65 218 339T287 628ZM703 469Q703 507 692 537T666 584T629 613T590 629T555 636Q553 636 541 636T512 636T479 637H436Q392 637 386 627Q384 623 313 339T242 52Q242 48 253 48T330 47Q335 47 349 47T373 46Q499 46 581 128Q617 164 640 212T683 339T703 469Z"></path></g></g></g></svg></g><g transform="rotate(0, 256.0112263201331, 364.4149503334546)translate(248.51122632013312, 357.2549503334546)"><title>`A`.text</title><svg style="font-size: 20px" xmlns="http://www.w3.org/2000/svg" width="15" height="14.32" role="img" focusable="false" viewBox="0 -716 750 716"><g stroke="none" fill="#000000" stroke-width="0" transform="scale(1,-1)" fill-opacity="1"><g data-mml-node="math"><g data-mml-node="mi"><path data-c="1D434" d="M208 74Q208 50 254 46Q272 46 272 35Q272 34 270 22Q267 8 264 4T251 0Q249 0 239 0T205 1T141 2Q70 2 50 0H42Q35 7 35 11Q37 38 48 46H62Q132 49 164 96Q170 102 345 401T523 704Q530 716 547 716H555H572Q578 707 578 706L606 383Q634 60 636 57Q641 46 701 46Q726 46 726 36Q726 34 723 22Q720 7 718 4T704 0Q701 0 690 0T651 1T578 2Q484 2 455 0H443Q437 6 437 9T439 27Q443 40 445 43L449 46H469Q523 49 533 63L521 213H283L249 155Q208 86 208 74ZM516 260Q516 271 504 416T490 562L463 519Q447 492 400 412L310 260L413 259Q516 259 516 260Z"></path></g></g></g></svg></g><g transform="rotate(0, 159.73133134780755, 385.74739485331907)translate(152.14133134780755, 378.9173948533191)"><title>`B`.text</title><svg style="font-size: 20px" xmlns="http://www.w3.org/2000/svg" width="15.18" height="13.66" role="img" focusable="false" viewBox="0 -683 759 683"><g stroke="none" fill="#000000" stroke-width="0" transform="scale(1,-1)" fill-opacity="1"><g data-mml-node="math"><g data-mml-node="mi"><path data-c="1D435" d="M231 637Q204 637 199 638T194 649Q194 676 205 682Q206 683 335 683Q594 683 608 681Q671 671 713 636T756 544Q756 480 698 429T565 360L555 357Q619 348 660 311T702 219Q702 146 630 78T453 1Q446 0 242 0Q42 0 39 2Q35 5 35 10Q35 17 37 24Q42 43 47 45Q51 46 62 46H68Q95 46 128 49Q142 52 147 61Q150 65 219 339T288 628Q288 635 231 637ZM649 544Q649 574 634 600T585 634Q578 636 493 637Q473 637 451 637T416 636H403Q388 635 384 626Q382 622 352 506Q352 503 351 500L320 374H401Q482 374 494 376Q554 386 601 434T649 544ZM595 229Q595 273 572 302T512 336Q506 337 429 337Q311 337 310 336Q310 334 293 263T258 122L240 52Q240 48 252 48T333 46Q422 46 429 47Q491 54 543 105T595 229Z"></path></g></g></g></svg></g><g style="solid"><line x1="301.5864770011329" y1="378.57495088984075" x2="263.5112486757" y2="390.8479737810552" stroke="#000000" stroke-opacity="1" stroke-width="1.75"></line><title>`ang_O_E_A`.side2</title></g><g style="solid"><line x1="263.5112486757" y1="390.8479737810552" x2="339.66170532656577" y2="366.30192799862635" stroke="#000000" stroke-opacity="1" stroke-width="1.75"></line><title>`AC`.icon</title></g><g style="solid"><line x1="339.66170532656577" y1="366.30192799862635" x2="263.5112486757" y2="390.8479737810552" stroke="#000000" stroke-opacity="1" stroke-width="1.75"></line><title>`tri_A_B_C`.RP</title></g><g style="solid"><line x1="222.13831240834125" y1="393.6657378277043" x2="263.5112486757" y2="390.8479737810552" stroke="#000000" stroke-opacity="1" stroke-width="1.75"></line><title>`ang_O_F_A`.side2</title></g><circle fill="#000000" fill-opacity="1" cx="263.5112486757" cy="390.8479737810552" stroke="#000000" stroke-opacity="1" stroke-width="0" r="4"><title>`A`.icon</title></circle><g transform="rotate(0, 360.66299529657147, 377.62229329438196)translate(353.06299529657144, 370.352293294382)"><title>`C`.text</title><svg style="font-size: 20px" xmlns="http://www.w3.org/2000/svg" width="15.2" height="14.54" role="img" focusable="false" viewBox="0 -705 760 727"><g stroke="none" fill="#000000" stroke-width="0" transform="scale(1,-1)" fill-opacity="1"><g data-mml-node="math"><g data-mml-node="mi"><path data-c="1D436" d="M50 252Q50 367 117 473T286 641T490 704Q580 704 633 653Q642 643 648 636T656 626L657 623Q660 623 684 649Q691 655 699 663T715 679T725 690L740 705H746Q760 705 760 698Q760 694 728 561Q692 422 692 421Q690 416 687 415T669 413H653Q647 419 647 422Q647 423 648 429T650 449T651 481Q651 552 619 605T510 659Q484 659 454 652T382 628T299 572T226 479Q194 422 175 346T156 222Q156 108 232 58Q280 24 350 24Q441 24 512 92T606 240Q610 253 612 255T628 257Q648 257 648 248Q648 243 647 239Q618 132 523 55T319 -22Q206 -22 128 53T50 252Z"></path></g></g></g></svg></g><circle fill="#000000" fill-opacity="1" cx="301.5864770011329" cy="378.57495088984075" stroke="#000000" stroke-opacity="1" stroke-width="0" r="4"><title>`E`.icon</title></circle><g transform="rotate(0, 320.1868309911743, 363.0645743007906)translate(312.5468309911743, 356.26457430079057)"><title>`E`.text</title><svg style="font-size: 20px" xmlns="http://www.w3.org/2000/svg" width="15.280000000000001" height="13.600000000000001" role="img" focusable="false" viewBox="0 -680 764 680"><g stroke="none" fill="#000000" stroke-width="0" transform="scale(1,-1)" fill-opacity="1"><g data-mml-node="math"><g data-mml-node="mi"><path data-c="1D438" d="M492 213Q472 213 472 226Q472 230 477 250T482 285Q482 316 461 323T364 330H312Q311 328 277 192T243 52Q243 48 254 48T334 46Q428 46 458 48T518 61Q567 77 599 117T670 248Q680 270 683 272Q690 274 698 274Q718 274 718 261Q613 7 608 2Q605 0 322 0H133Q31 0 31 11Q31 13 34 25Q38 41 42 43T65 46Q92 46 125 49Q139 52 144 61Q146 66 215 342T285 622Q285 629 281 629Q273 632 228 634H197Q191 640 191 642T193 659Q197 676 203 680H757Q764 676 764 669Q764 664 751 557T737 447Q735 440 717 440H705Q698 445 698 453L701 476Q704 500 704 528Q704 558 697 578T678 609T643 625T596 632T532 634H485Q397 633 392 631Q388 629 386 622Q385 619 355 499T324 377Q347 376 372 376H398Q464 376 489 391T534 472Q538 488 540 490T557 493Q562 493 565 493T570 492T572 491T574 487T577 483L544 351Q511 218 508 216Q505 213 492 213Z"></path></g></g></g></svg></g><g transform="rotate(0, 213.11580061571493, 414.38160719156156)translate(205.62580061571492, 407.58160719156155)"><title>`F`.text</title><svg style="font-size: 20px" xmlns="http://www.w3.org/2000/svg" width="14.98" height="13.600000000000001" role="img" focusable="false" viewBox="0 -680 749 680"><g stroke="none" fill="#000000" stroke-width="0" transform="scale(1,-1)" fill-opacity="1"><g data-mml-node="math"><g data-mml-node="mi"><path data-c="1D439" d="M48 1Q31 1 31 11Q31 13 34 25Q38 41 42 43T65 46Q92 46 125 49Q139 52 144 61Q146 66 215 342T285 622Q285 629 281 629Q273 632 228 634H197Q191 640 191 642T193 659Q197 676 203 680H742Q749 676 749 669Q749 664 736 557T722 447Q720 440 702 440H690Q683 445 683 453Q683 454 686 477T689 530Q689 560 682 579T663 610T626 626T575 633T503 634H480Q398 633 393 631Q388 629 386 623Q385 622 352 492L320 363H375Q378 363 398 363T426 364T448 367T472 374T489 386Q502 398 511 419T524 457T529 475Q532 480 548 480H560Q567 475 567 470Q567 467 536 339T502 207Q500 200 482 200H470Q463 206 463 212Q463 215 468 234T473 274Q473 303 453 310T364 317H309L277 190Q245 66 245 60Q245 46 334 46H359Q365 40 365 39T363 19Q359 6 353 0H336Q295 2 185 2Q120 2 86 2T48 1Z"></path></g></g></g></svg></g><g transform="rotate(0, 214.13062159495996, 81.44041532103009)translate(206.50062159495997, 74.18041532103008)"><title>`O`.text</title><svg style="font-size: 20px" xmlns="http://www.w3.org/2000/svg" width="15.26" height="14.52" role="img" focusable="false" viewBox="0 -704 763 726"><g stroke="none" fill="#000000" stroke-width="0" transform="scale(1,-1)" fill-opacity="1"><g data-mml-node="math"><g data-mml-node="mi"><path data-c="1D442" d="M740 435Q740 320 676 213T511 42T304 -22Q207 -22 138 35T51 201Q50 209 50 244Q50 346 98 438T227 601Q351 704 476 704Q514 704 524 703Q621 689 680 617T740 435ZM637 476Q637 565 591 615T476 665Q396 665 322 605Q242 542 200 428T157 216Q157 126 200 73T314 19Q404 19 485 98T608 313Q637 408 637 476Z"></path></g></g></g></svg></g><circle fill="#000000" fill-opacity="1" cx="339.66170532656577" cy="366.30192799862635" stroke="#000000" stroke-opacity="1" stroke-width="0" r="4"><title>`C`.icon</title></circle><path fill="none" stroke="none" d="M 263.5112486757 390.8479737810552 L 180.76537614098248 396.48350187435335 L 339.66170532656577 366.30192799862635 Z "><title>`tri_A_B_C`.icon</title></path><circle fill="#000000" fill-opacity="1" cx="222.13831240834125" cy="393.6657378277043" stroke="#000000" stroke-opacity="1" stroke-width="0" r="4"><title>`F`.icon</title></circle><path fill="none" stroke="#000000" stroke-opacity="1" stroke-width="2" stroke-linecap="butt" d="M 298.51855700464785 369.05718534945805 L 289.00079146426515 372.1251053459431 L 292.0687135537567 381.6428702116741"><title>`ang_O_E_A`.mark</title></path><path fill="none" stroke="#000000" stroke-opacity="1" stroke-width="2" stroke-linecap="butt" d="M 258.347455213613 371.56837176867253 L 248.5231120457956 373.43445728883364 L 250.38919847859142 383.25880028330056"><title>`ang_O_D_B`.mark</title></path><path fill="none" stroke="#000000" stroke-opacity="1" stroke-width="2" stroke-linecap="butt" d="M 221.4588219542691 383.68885020148997 L 231.43570958048343 383.0093597474179 L 232.11519792881734 392.98624751704654"><title>`ang_O_F_A`.mark</title></path></svg>