<svg version="1.2" xmlns="http://www.w3.org/2000/svg" viewBox="0 0 500 500" penrose="0"><penrose><croppedViewBox>226.43245352563025 122.35008309747933 271.7471701562434 282.27601515176724</croppedViewBox></penrose><g transform="rotate(0, 251.05980968422293, 208.48510980896518)translate(243.54980968422294, 201.65510980896516)"><title>`P`.text</title><svg style="font-size: 20px" xmlns="http://www.w3.org/2000/svg" width="15.02" height="13.66" role="img" focusable="false" viewBox="0 -683 751 683"><g stroke="none" fill="#000000" stroke-width="0" transform="scale(1,-1)" fill-opacity="1"><g data-mml-node="math"><g data-mml-node="mi"><path data-c="1D443" d="M287 628Q287 635 230 637Q206 637 199 638T192 648Q192 649 194 659Q200 679 203 681T397 683Q587 682 600 680Q664 669 707 631T751 530Q751 453 685 389Q616 321 507 303Q500 302 402 301H307L277 182Q247 66 247 59Q247 55 248 54T255 50T272 48T305 46H336Q342 37 342 35Q342 19 335 5Q330 0 319 0Q316 0 282 1T182 2Q120 2 87 2T51 1Q33 1 33 11Q33 13 36 25Q40 41 44 43T67 46Q94 46 127 49Q141 52 146 61Q149 65 218 339T287 628ZM645 554Q645 567 643 575T634 597T609 619T560 635Q553 636 480 637Q463 637 445 637T416 636T404 636Q391 635 386 627Q384 621 367 550T332 412T314 344Q314 342 395 342H407H430Q542 342 590 392Q617 419 631 471T645 554Z"></path></g></g></g></svg></g><g transform="rotate(0, 246.1451351505122, 332.7063352166582)translate(237.8651351505122, 325.8763352166582)"><title>`D`.text</title><svg style="font-size: 20px" xmlns="http://www.w3.org/2000/svg" width="16.56" height="13.66" role="img" focusable="false" viewBox="0 -683 828 683"><g stroke="none" fill="#000000" stroke-width="0" transform="scale(1,-1)" fill-opacity="1"><g data-mml-node="math"><g data-mml-node="mi"><path data-c="1D437" d="M287 628Q287 635 230 637Q207 637 200 638T193 647Q193 655 197 667T204 682Q206 683 403 683Q570 682 590 682T630 676Q702 659 752 597T803 431Q803 275 696 151T444 3L430 1L236 0H125H72Q48 0 41 2T33 11Q33 13 36 25Q40 41 44 43T67 46Q94 46 127 49Q141 52 146 61Q149 65 218 339T287 628ZM703 469Q703 507 692 537T666 584T629 613T590 629T555 636Q553 636 541 636T512 636T479 637H436Q392 637 386 627Q384 623 313 339T242 52Q242 48 253 48T330 47Q335 47 349 47T373 46Q499 46 581 128Q617 164 640 212T683 339T703 469Z"></path></g></g></g></svg></g><g transform="rotate(0, 257.04624112482264, 289.14052697493713)translate(246.53624112482265, 282.31052697493715)"><title>`M`.text</title><svg style="font-size: 20px" xmlns="http://www.w3.org/2000/svg" width="21.02" height="13.66" role="img" focusable="false" viewBox="0 -683 1051 683"><g stroke="none" fill="#000000" stroke-width="0" transform="scale(1,-1)" fill-opacity="1"><g data-mml-node="math"><g data-mml-node="mi"><path data-c="1D440" d="M289 629Q289 635 232 637Q208 637 201 638T194 648Q194 649 196 659Q197 662 198 666T199 671T201 676T203 679T207 681T212 683T220 683T232 684Q238 684 262 684T307 683Q386 683 398 683T414 678Q415 674 451 396L487 117L510 154Q534 190 574 254T662 394Q837 673 839 675Q840 676 842 678T846 681L852 683H948Q965 683 988 683T1017 684Q1051 684 1051 673Q1051 668 1048 656T1045 643Q1041 637 1008 637Q968 636 957 634T939 623Q936 618 867 340T797 59Q797 55 798 54T805 50T822 48T855 46H886Q892 37 892 35Q892 19 885 5Q880 0 869 0Q864 0 828 1T736 2Q675 2 644 2T609 1Q592 1 592 11Q592 13 594 25Q598 41 602 43T625 46Q652 46 685 49Q699 52 704 61Q706 65 742 207T813 490T848 631L654 322Q458 10 453 5Q451 4 449 3Q444 0 433 0Q418 0 415 7Q413 11 374 317L335 624L267 354Q200 88 200 79Q206 46 272 46H282Q288 41 289 37T286 19Q282 3 278 1Q274 0 267 0Q265 0 255 0T221 1T157 2Q127 2 95 1T58 0Q43 0 39 2T35 11Q35 13 38 25T43 40Q45 46 65 46Q135 46 154 86Q158 92 223 354T289 629Z"></path></g></g></g></svg></g><g style="solid"><line x1="261.7273894684723" y1="228.95440024379758" x2="301.3739300905737" y2="363.7750667990366" stroke="#000000" stroke-opacity="1" stroke-width="1.75"></line><title>`PQ`.icon</title></g><g transform="rotate(0, 276.58190084285224, 362.2998648021638)translate(268.06190084285225, 355.46986480216384)"><title>`X`.text</title><svg style="font-size: 20px" xmlns="http://www.w3.org/2000/svg" width="17.04" height="13.66" role="img" focusable="false" viewBox="0 -683 852 683"><g stroke="none" fill="#000000" stroke-width="0" transform="scale(1,-1)" fill-opacity="1"><g data-mml-node="math"><g data-mml-node="mi"><path data-c="1D44B" d="M42 0H40Q26 0 26 11Q26 15 29 27Q33 41 36 43T55 46Q141 49 190 98Q200 108 306 224T411 342Q302 620 297 625Q288 636 234 637H206Q200 643 200 645T202 664Q206 677 212 683H226Q260 681 347 681Q380 681 408 681T453 682T473 682Q490 682 490 671Q490 670 488 658Q484 643 481 640T465 637Q434 634 411 620L488 426L541 485Q646 598 646 610Q646 628 622 635Q617 635 609 637Q594 637 594 648Q594 650 596 664Q600 677 606 683H618Q619 683 643 683T697 681T738 680Q828 680 837 683H845Q852 676 852 672Q850 647 840 637H824Q790 636 763 628T722 611T698 593L687 584Q687 585 592 480L505 384Q505 383 536 304T601 142T638 56Q648 47 699 46Q734 46 734 37Q734 35 732 23Q728 7 725 4T711 1Q708 1 678 1T589 2Q528 2 496 2T461 1Q444 1 444 10Q444 11 446 25Q448 35 450 39T455 44T464 46T480 47T506 54Q523 62 523 64Q522 64 476 181L429 299Q241 95 236 84Q232 76 232 72Q232 53 261 47Q262 47 267 47T273 46Q276 46 277 46T280 45T283 42T284 35Q284 26 282 19Q279 6 276 4T261 1Q258 1 243 1T201 2T142 2Q64 2 42 0Z"></path></g></g></g></svg></g><g transform="rotate(0, 368.0743338591128, 129.62008309747932)translate(360.4743338591128, 122.35008309747933)"><title>`C`.text</title><svg style="font-size: 20px" xmlns="http://www.w3.org/2000/svg" width="15.2" height="14.54" role="img" focusable="false" viewBox="0 -705 760 727"><g stroke="none" fill="#000000" stroke-width="0" transform="scale(1,-1)" fill-opacity="1"><g data-mml-node="math"><g data-mml-node="mi"><path data-c="1D436" d="M50 252Q50 367 117 473T286 641T490 704Q580 704 633 653Q642 643 648 636T656 626L657 623Q660 623 684 649Q691 655 699 663T715 679T725 690L740 705H746Q760 705 760 698Q760 694 728 561Q692 422 692 421Q690 416 687 415T669 413H653Q647 419 647 422Q647 423 648 429T650 449T651 481Q651 552 619 605T510 659Q484 659 454 652T382 628T299 572T226 479Q194 422 175 346T156 222Q156 108 232 58Q280 24 350 24Q441 24 512 92T606 240Q610 253 612 255T628 257Q648 257 648 248Q648 243 647 239Q618 132 523 55T319 -22Q206 -22 128 53T50 252Z"></path></g></g></g></svg></g><g transform="rotate(0, 397.41086224311, 257.9096149539852)translate(389.78086224311, 250.64961495398524)"><title>`O`.text</title><svg style="font-size: 20px" xmlns="http://www.w3.org/2000/svg" width="15.26" height="14.52" role="img" focusable="false" viewBox="0 -704 763 726"><g stroke="none" fill="#000000" stroke-width="0" transform="scale(1,-1)" fill-opacity="1"><g data-mml-node="math"><g data-mml-node="mi"><path data-c="1D442" d="M740 435Q740 320 676 213T511 42T304 -22Q207 -22 138 35T51 201Q50 209 50 244Q50 346 98 438T227 601Q351 704 476 704Q514 704 524 703Q621 689 680 617T740 435ZM637 476Q637 565 591 615T476 665Q396 665 322 605Q242 542 200 428T157 216Q157 126 200 73T314 19Q404 19 485 98T608 313Q637 408 637 476Z"></path></g></g></g></svg></g><g transform="rotate(0, 317.66073915547724, 345.7836609983341)translate(310.07073915547727, 338.74366099833406)"><title>`R`.text</title><svg style="font-size: 20px" xmlns="http://www.w3.org/2000/svg" width="15.18" height="14.079999999999998" role="img" focusable="false" viewBox="0 -683 759 704"><g stroke="none" fill="#000000" stroke-width="0" transform="scale(1,-1)" fill-opacity="1"><g data-mml-node="math"><g data-mml-node="mi"><path data-c="1D445" d="M230 637Q203 637 198 638T193 649Q193 676 204 682Q206 683 378 683Q550 682 564 680Q620 672 658 652T712 606T733 563T739 529Q739 484 710 445T643 385T576 351T538 338L545 333Q612 295 612 223Q612 212 607 162T602 80V71Q602 53 603 43T614 25T640 16Q668 16 686 38T712 85Q717 99 720 102T735 105Q755 105 755 93Q755 75 731 36Q693 -21 641 -21H632Q571 -21 531 4T487 82Q487 109 502 166T517 239Q517 290 474 313Q459 320 449 321T378 323H309L277 193Q244 61 244 59Q244 55 245 54T252 50T269 48T302 46H333Q339 38 339 37T336 19Q332 6 326 0H311Q275 2 180 2Q146 2 117 2T71 2T50 1Q33 1 33 10Q33 12 36 24Q41 43 46 45Q50 46 61 46H67Q94 46 127 49Q141 52 146 61Q149 65 218 339T287 628Q287 635 230 637ZM630 554Q630 586 609 608T523 636Q521 636 500 636T462 637H440Q393 637 386 627Q385 624 352 494T319 361Q319 360 388 360Q466 361 492 367Q556 377 592 426Q608 449 619 486T630 554Z"></path></g></g></g></svg></g><g style="solid"><line x1="354.2413907248913" y1="149.42605003160776" x2="268.19687925435215" y2="323.3584912702388" stroke="#000000" stroke-opacity="1" stroke-width="1.75"></line><title>`CD`.icon</title></g><g transform="rotate(0, 310.82936997443755, 386.6695287678814)translate(302.91936997443753, 377.68952876788137)"><title>`Q`.text</title><svg style="font-size: 20px" xmlns="http://www.w3.org/2000/svg" width="15.82" height="17.96" role="img" focusable="false" viewBox="0 -704 791 898"><g stroke="none" fill="#000000" stroke-width="0" transform="scale(1,-1)" fill-opacity="1"><g data-mml-node="math"><g data-mml-node="mi"><path data-c="1D444" d="M399 -80Q399 -47 400 -30T402 -11V-7L387 -11Q341 -22 303 -22Q208 -22 138 35T51 201Q50 209 50 244Q50 346 98 438T227 601Q351 704 476 704Q514 704 524 703Q621 689 680 617T740 435Q740 255 592 107Q529 47 461 16L444 8V3Q444 2 449 -24T470 -66T516 -82Q551 -82 583 -60T625 -3Q631 11 638 11Q647 11 649 2Q649 -6 639 -34T611 -100T557 -165T481 -194Q399 -194 399 -87V-80ZM636 468Q636 523 621 564T580 625T530 655T477 665Q429 665 379 640Q277 591 215 464T153 216Q153 110 207 59Q231 38 236 38V46Q236 86 269 120T347 155Q372 155 390 144T417 114T429 82T435 55L448 64Q512 108 557 185T619 334T636 468ZM314 18Q362 18 404 39L403 49Q399 104 366 115Q354 117 347 117Q344 117 341 117T337 118Q317 118 296 98T274 52Q274 18 314 18Z"></path></g></g></g></svg></g><g transform="rotate(0, 234.02245352563025, 249.98542996176917)translate(226.43245352563025, 243.15542996176916)"><title>`B`.text</title><svg style="font-size: 20px" xmlns="http://www.w3.org/2000/svg" width="15.18" height="13.66" role="img" focusable="false" viewBox="0 -683 759 683"><g stroke="none" fill="#000000" stroke-width="0" transform="scale(1,-1)" fill-opacity="1"><g data-mml-node="math"><g data-mml-node="mi"><path data-c="1D435" d="M231 637Q204 637 199 638T194 649Q194 676 205 682Q206 683 335 683Q594 683 608 681Q671 671 713 636T756 544Q756 480 698 429T565 360L555 357Q619 348 660 311T702 219Q702 146 630 78T453 1Q446 0 242 0Q42 0 39 2Q35 5 35 10Q35 17 37 24Q42 43 47 45Q51 46 62 46H68Q95 46 128 49Q142 52 147 61Q150 65 219 339T288 628Q288 635 231 637ZM649 544Q649 574 634 600T585 634Q578 636 493 637Q473 637 451 637T416 636H403Q388 635 384 626Q382 622 352 506Q352 503 351 500L320 374H401Q482 374 494 376Q554 386 601 434T649 544ZM595 229Q595 273 572 302T512 336Q506 337 429 337Q311 337 310 336Q310 334 293 263T258 122L240 52Q240 48 252 48T333 46Q422 46 429 47Q491 54 543 105T595 229Z"></path></g></g></g></svg></g><g transform="rotate(0, 288.0926583372836, 237.077736981334)translate(280.4626583372836, 230.247736981334)"><title>`Y`.text</title><svg style="font-size: 20px" xmlns="http://www.w3.org/2000/svg" width="15.26" height="13.66" role="img" focusable="false" viewBox="0 -683 763 683"><g stroke="none" fill="#000000" stroke-width="0" transform="scale(1,-1)" fill-opacity="1"><g data-mml-node="math"><g data-mml-node="mi"><path data-c="1D44C" d="M66 637Q54 637 49 637T39 638T32 641T30 647T33 664T42 682Q44 683 56 683Q104 680 165 680Q288 680 306 683H316Q322 677 322 674T320 656Q316 643 310 637H298Q242 637 242 624Q242 619 292 477T343 333L346 336Q350 340 358 349T379 373T411 410T454 461Q546 568 561 587T577 618Q577 634 545 637Q528 637 528 647Q528 649 530 661Q533 676 535 679T549 683Q551 683 578 682T657 680Q684 680 713 681T746 682Q763 682 763 673Q763 669 760 657T755 643Q753 637 734 637Q662 632 617 587Q608 578 477 424L348 273L322 169Q295 62 295 57Q295 46 363 46Q379 46 384 45T390 35Q390 33 388 23Q384 6 382 4T366 1Q361 1 324 1T232 2Q170 2 138 2T102 1Q84 1 84 9Q84 14 87 24Q88 27 89 30T90 35T91 39T93 42T96 44T101 45T107 45T116 46T129 46Q168 47 180 50T198 63Q201 68 227 171L252 274L129 623Q128 624 127 625T125 627T122 629T118 631T113 633T105 634T96 635T83 636T66 637Z"></path></g></g></g></svg></g><g transform="rotate(0, 359.65060628016636, 397.46609824924656)translate(352.15060628016636, 390.30609824924653)"><title>`A`.text</title><svg style="font-size: 20px" xmlns="http://www.w3.org/2000/svg" width="15" height="14.32" role="img" focusable="false" viewBox="0 -716 750 716"><g stroke="none" fill="#000000" stroke-width="0" transform="scale(1,-1)" fill-opacity="1"><g data-mml-node="math"><g data-mml-node="mi"><path data-c="1D434" d="M208 74Q208 50 254 46Q272 46 272 35Q272 34 270 22Q267 8 264 4T251 0Q249 0 239 0T205 1T141 2Q70 2 50 0H42Q35 7 35 11Q37 38 48 46H62Q132 49 164 96Q170 102 345 401T523 704Q530 716 547 716H555H572Q578 707 578 706L606 383Q634 60 636 57Q641 46 701 46Q726 46 726 36Q726 34 723 22Q720 7 718 4T704 0Q701 0 690 0T651 1T578 2Q484 2 455 0H443Q437 6 437 9T439 27Q443 40 445 43L449 46H469Q523 49 533 63L521 213H283L249 155Q208 86 208 74ZM516 260Q516 271 504 416T490 562L463 519Q447 492 400 412L310 260L413 259Q516 259 516 260Z"></path></g></g></g></svg></g><circle fill="none" cx="376.19111177381615" cy="268.53395117726154" stroke="#000000" stroke-opacity="1" stroke-width="1.75" r="121.11351190805746"><title>`c_O_R`.icon</title></circle><circle fill="#000000" fill-opacity="1" cx="339.64954327425994" cy="384.0034164017571" stroke="#000000" stroke-opacity="1" stroke-width="0" r="4"><title>`A`.icon</title></circle><circle fill="#000000" fill-opacity="1" cx="268.19687925435215" cy="323.3584912702388" stroke="#000000" stroke-opacity="1" stroke-width="0" r="4"><title>`D`.icon</title></circle><g style="solid"><line x1="339.64954327425994" y1="384.0034164017571" x2="268.19687925435215" y2="323.3584912702388" stroke="#000000" stroke-opacity="1" stroke-width="1.75"></line><title>`AD`.icon</title></g><g style="solid"><line x1="339.64954327425994" y1="384.0034164017571" x2="255.6063531106226" y2="257.2292419718134" stroke="#000000" stroke-opacity="1" stroke-width="1.75"></line><title>`AB`.icon</title></g><circle fill="#000000" fill-opacity="1" cx="255.6063531106226" cy="257.2292419718134" stroke="#000000" stroke-opacity="1" stroke-width="0" r="4"><title>`B`.icon</title></circle><circle fill="#000000" fill-opacity="1" cx="354.2413907248913" cy="149.42605003160776" stroke="#000000" stroke-opacity="1" stroke-width="0" r="4"><title>`C`.icon</title></circle><g style="solid"><line x1="255.6063531106226" y1="257.2292419718134" x2="354.2413907248913" y2="149.42605003160776" stroke="#000000" stroke-opacity="1" stroke-width="1.75"></line><title>`BC`.icon</title></g><g style="solid"><line x1="296.5704060357464" y1="347.440305170538" x2="266.5309672297978" y2="245.28918565489312" stroke="#000000" stroke-opacity="1" stroke-width="1.75"></line><title>`XY`.icon</title></g><circle fill="#000000" fill-opacity="1" cx="296.5704060357464" cy="347.440305170538" stroke="#000000" stroke-opacity="1" stroke-width="0" r="4"><title>`X`.icon</title></circle><circle fill="#000000" fill-opacity="1" cx="266.5309672297978" cy="245.28918565489312" stroke="#000000" stroke-opacity="1" stroke-width="0" r="4"><title>`Y`.icon</title></circle><circle fill="#000000" fill-opacity="1" cx="261.7273894684723" cy="228.95440024379758" stroke="#000000" stroke-opacity="1" stroke-width="0" r="4"><title>`P`.icon</title></circle><circle fill="#000000" fill-opacity="1" cx="301.3739300905737" cy="363.7750667990366" stroke="#000000" stroke-opacity="1" stroke-width="0" r="4"><title>`Q`.icon</title></circle><circle fill="#000000" fill-opacity="1" cx="281.5506866327721" cy="296.3647454127156" stroke="#000000" stroke-opacity="1" stroke-width="0" r="4"><title>`M`.icon</title></circle><circle fill="#000000" fill-opacity="1" cx="376.19111177381615" cy="268.53395117726154" stroke="#000000" stroke-opacity="1" stroke-width="0" r="4"><title>`O`.icon</title></circle><circle fill="#000000" fill-opacity="1" cx="300.8866708880324" cy="363.3902843848164" stroke="#000000" stroke-opacity="1" stroke-width="0" r="4"><title>`R`.icon</title></circle></svg>